<svg xmlns="http://www.w3.org/2000/svg" width="36.32" height="36.32" viewBox="0 0 36.32 36.32">
  <g id="Group_4579" data-name="Group 4579" transform="translate(-226 -62)">
    <rect id="Rectangle_3943" data-name="Rectangle 3943" width="36.32" height="36.32" rx="6" transform="translate(226 62)" fill="#b5e8f2"/>
    <g id="security" transform="translate(230.703 67.364)">
      <circle id="Ellipse_429" data-name="Ellipse 429" cx="1.987" cy="1.987" r="1.987" transform="translate(11.307 8.134)" fill="#1a7d98"/>
      <path id="Path_9508" data-name="Path 9508" d="M19.831,4.847a5.845,5.845,0,0,1-2.895-.769L13.293,2,9.65,4.078a5.845,5.845,0,0,1-2.895.769H4.06v8.791a9.532,9.532,0,0,0,5.3,8.632l3.934,1.9,3.941-1.891a9.532,9.532,0,0,0,5.3-8.632v-8.8Zm-6.538,1.7a3.485,3.485,0,0,1,3.4,3.561,3.485,3.485,0,0,1-3.4,3.561,3.485,3.485,0,0,1-3.4-3.561A3.492,3.492,0,0,1,13.293,6.551ZM16.32,18.03A1.553,1.553,0,0,0,14.8,16.444H11.777a1.546,1.546,0,0,0-1.51,1.579H8.75a3.1,3.1,0,0,1,3.027-3.166H14.8a3.106,3.106,0,0,1,3.027,3.166Z" fill="#1a7d98" fill-rule="evenodd"/>
    </g>
  </g>
</svg>
