<svg xmlns="http://www.w3.org/2000/svg" width="36.499" height="36.499" viewBox="0 0 36.499 36.499">
  <g id="Group_4581" data-name="Group 4581" transform="translate(-226 -92)">
    <rect id="Rectangle_3943" data-name="Rectangle 3943" width="36.499" height="36.499" rx="6" transform="translate(226 92)" fill="#d0c6e0"/>
    <path id="teacher" d="M16.931,20.354l-.925.925a.487.487,0,0,1-.69,0l-.93-.925a.481.481,0,0,1-.128-.492L14.99,17a.4.4,0,0,1,.38-.294h.567a.39.39,0,0,1,.38.294l.733,2.866A.487.487,0,0,1,16.931,20.354Zm1.743-4.021a1.139,1.139,0,0,1-.765-1.112,4.674,4.674,0,1,0-4.5,0,1.144,1.144,0,0,1-.759,1.1C10.2,17.183,8.37,19,8.37,21V22.07A1.069,1.069,0,0,0,9.4,23.14H21.91A1.069,1.069,0,0,0,22.979,22.1V21.033C22.952,19.044,21.1,17.215,18.674,16.332Z" transform="translate(228.796 95.293)" fill="#634299"/>
  </g>
</svg>
